<svg
height="400"
width="100%"
viewBox="-60.63325377238458 -88.54675568352835 157.37779232848675 175.1412031215474"><g id="1-layer"
stroke="#000000"
opacity="0.5"
fill="none"><path
d="M0.0,0.0L0.8695638883244518,-0.4938204573750062L-1.7176337481966784,-1.024565423511759L-0.06408361556167108,2.9993154702725993L3.519656297318439,-1.9005313858883406L-4.2383896804254215,-2.6525559215336623L-0.2562759727268293,5.9945243869553915L6.229038961416669,-3.193598850380734L-6.689217260593238,-4.387980451253344L-0.5764016429736767,8.981523319903882L8.994052515663695,-4.371157666509362L-9.066692782299889,-6.228569819099014L-1.0241683788677953,11.95621508386861L11.81098552319154,-5.4314474103096915L-11.367458094946901,-8.171957933055346L-1.599167314128816,14.914511855954991L14.676077286834786,-6.372813779709252L-13.588223173614024,-10.215683578892742L-2.300873243555106,17.852338287101L17.585520694893177,-7.193709883605527L-15.725768642732469,-12.35719226180657L-3.128644982633049,20.765634605584417L20.53546509922762,-7.892697457675956L-17.776948251936744,-14.59383811229805L-4.081725806613465,23.65035971057577L23.522019223855438,-8.468448006132837L-19.73869130250583,-16.922885855089273L-5.159243968789993,26.502494253758535L26.541254102193008,-8.919743868678232L-21.608005022834284,-19.34151283982637L-6.360213297661314,29.318043707045874L29.58920604107257,-9.245479211969197L-23.381976891404673,-21.846811132286973L-7.683533872612682,32.09304141443147L32.661879609651436,-9.444660944927335L-25.057776905764058,-24.435789664771576L-9.127992777707796,34.82355162602049L35.75525065130387,-9.516409557308608L-26.632659796042645,-27.105376444319194L-10.692264933137213,37.505672512296115L38.86526931658682,-9.459959880949562L-28.10396718157588,-29.85242081736263L-12.374914003800553,40.13553915669429L41.98786311534133,-9.274661773205507L-29.46912966924857,-32.673695789381L-14.174393384488612,42.709326524563295L45.118939985993855,-8.959980722093375L-30.725668892177872,-35.565900398109605L-16.089047261058084,45.223252406604274L48.25439138010171,-8.515498372729926L-31.871199487436293,-38.52566213878797L-18.117111746938814,47.67358033490805L51.390095360176865,-7.940912974710674L-32.903431011489616,-41.5495394399522L-20.256716094310395,50.05662246970431L54.52191970882282,-7.236039750075871L-33.820169792152434,-44.63402418816816L-22.50588397918098,52.36874245497638L57.64572504719752,-6.400811181631958L-34.61932071577579,-47.77554430017786L-24.862534859595836,54.606358241100295L60.75736796082399,-5.435277221360249L-35.298888948569015,-50.97046634078005L-27.324485406165422,56.765944872680954L63.85270413075204,-4.339605418772758L-35.8569815908485,-54.215098184855776L-29.889451003993436,58.844037239807705L66.92759146807873,-3.114080969074777L-36.29180926319923,-57.505691721807565L-32.555047325158306,60.83723279092092L69.977893249831,-1.7591066810334453L-36.60168762340057,-60.838445600779494L-35.318791970716624,62.74219420556825L72.99948125420705,-0.2752028645799005L-36.78503881319274,-64.20950801487193L-38.17810618127881,64.5556520252952L75.98823889318118,1.3369928619214442L-36.84039283385651,-67.6149795226408L-41.130316615072005,66.27440724098506L78.94006434046823,3.0767258445851615L-36.76638884972113,-71.05091590508248L-44.17265719246201,67.89533383493475L81.85087365285385,4.943124747015213L-36.56177641865717,-74.5133310563427L-47.30227100573921,69.41538127605152L84.71660388289266,6.935201983291934L-36.22541664878527,-77.99819990629214L-50.516212293031685,70.83157696652924L87.53321618098634,9.0518542306376L-35.75628328057603,-81.50146137315085L-53.81144847517634,72.14102863837915L90.29669888485535,11.291863021563994L-35.15346369354721,-85.01902134432305L-57.18486225422794,73.34092669829703L93.00307059442494,13.653895415170455L-34.41615983693621,-88.54675568352835L-60.63325377238458,74.42854651928661L95.64838323016006,16.13650474720082"
vector-effect="non-scaling-stroke"
/></g><g id="2-layer"
stroke="#0076FE"
opacity="0.5"
fill="none"><path
d="M0.0,0.0L0.8683408129548679,-0.49596797533397174L-1.7226769396043233,-1.0160630697724833L-0.041844657194366565,2.999708156581951L3.500696838961271,-1.9352316764890358L-4.270842713370201,-2.5999812533271567L-0.167362345993756,5.9976653662190476L6.172861314460815,-3.300876124975475L-6.7746594125428885,-4.254878358313436L-0.37650422279910867,8.992121249750497L8.88328879253713,-4.592077985877878L-9.232647036966057,-5.979818449652288L-0.669188897450613,11.981326563428977L11.630418703529399,-5.808042766766918L-11.643343163250531,-7.773838175752509L-1.045302456982164,14.963533766240749L14.412675859686576,-6.94800507797798L-14.005303420793316,-9.635947078077745L-1.5046984988678491,17.936997586761972L17.22847096412043,-8.01122888441338L-16.31710196256217,-11.56512790864631L-2.0471981737526943,20.899975589396835L20.076201123918967,-8.997007748799312L-18.57733193051678,-13.56033695537842L-2.672590237658927,23.850728739842946L22.954250367281464,-9.904665066329038L-20.784605915539878,-15.620504375201998L-3.3806311136484273,26.787521969630415L25.860990164532563,-10.733554290632256L-22.93755641175262,-17.74453453482695L-4.171044962929875,29.708624739580547L28.794779952877317,-11.483059151000417L-25.034836265088245,-19.931306359098052L-5.043523765395424,32.61231160202986L31.753967664749556,-12.152593860819989L-27.07511911600617,-22.179673686825897L-5.997727409554884,35.49686276166774L34.73689025961684,-12.741603317139349L-29.057099836218704,-24.488465634008577L-7.033283791853605,38.36056463483364L37.74187425909105,-13.249563291330045L-30.979494959313122,-26.85648696434239L-8.149788925350304,41.20171040712069L40.76723628520207,-13.675980610782684L-32.84104310515498,-29.2825184669173L-9.346807057714484,44.01860058913571L43.81128360169013,-14.020393331582317L-34.64050539794932,-31.765317341003286L-10.623870798525909,46.8095435702617L46.87231465816874,-14.282370902116366L-36.37666587785331,-34.30361758781459L-11.980481255831348,49.57285617027401L49.948619637006146,-14.461514317583891L-38.04833190601208,-36.89613040916274L-13.4161081819368,52.306864188656625L53.03848100278684,-14.55745626533082L-39.654334562931005,-39.54154461286427L-14.93019012838178,55.00990295147203L56.14017405419113,-14.569861261011555L-41.193529040038406,-42.23852702483258L-16.522134610080176,57.68031785562897L59.25196747815866,-14.498425775484323L-42.66479502437823,-44.98572290769362L-18.191318278537633,60.31646491041184L62.372123906166486,-14.342878352472189L-44.06703707627871,-47.781756385862145L-19.93708710415982,62.916711276108074L65.49890047248938,-14.102979716887136L-45.39918499991904,-50.62523087693651L-21.758756567567524,65.47943579959541L68.63054937428103,-13.778522873819753L-46.660194206688466,-53.51472952929984L-23.655611859873627,68.00302954674157L71.76531843331931,-13.369333198192011L-47.849046071247514,-56.44881566580147L-25.626908091856727,70.48589633147563L74.90145165928399,-12.87526851494537L-48.96474828013156,-59.426033233452095L-27.671870512054156,72.92645324135891L78.03718981437976,-12.296219169910088L-50.00633517292471,-62.44490725890393L-29.789694733559326,75.3231311595671L81.1707709791906,-11.632108091132421L-50.97286807575271,-65.50394430972771L-31.979546969661197,77.67437528307025L84.300431119581,-10.882890840800417L-51.86343562712742,-68.60163296125545L-34.24056427810657,79.9786456369252L87.42440465450251,-10.048555657695225L-52.67715409600862,-71.73644426890255L-36.57185481397766,82.23441758452077L90.54092502455973,-9.129123490075834L-53.413167691930255,-74.90683224588888L-38.97249809119144,84.44018233360276L93.64822526115722,-8.124648019179249L-54.070648867262456,-78.11123434611189L-41.441545252369124,86.59444743801905L96.74453855610219,-7.035215673087616"
vector-effect="non-scaling-stroke"
/></g></svg>