<svg
height="400"
width="100%"
viewBox="-15.10756766196989 -13.77628454030286 30.21513532393978 27.55256908060572"><g id="1-layer"
stroke="#000000"
opacity="0.5"
fill="none"><path
d="M8.16254800516107,12.454701129718044L5.873498391588008,13.77628454030286"
vector-effect="non-scaling-stroke"
/><path
d="M-1.7521475558779473,4.093471173301528L-1.1008000175079704,3.151114708544281L0.2528817334519763,3.145282359978397L0.5173119537228152,4.424358605298181L0.05795820549276083,5.309842023630637L-0.8438214019575221,5.598535941834921L-1.7342788814808145,5.1225865985715835"
vector-effect="non-scaling-stroke"
/><path
d="M0.12972435531871446,2.9477911220020556L-2.173292066213618,4.277438272921877"
vector-effect="non-scaling-stroke"
/><path
d="M-1.3851477640853818,0.15938837319418406L-0.267701657143918,-0.38206610882571174L0.6409747315256803,-0.6351108151532543L1.2199891449683173,0.08536687536578065L1.6209111128463332,0.9648594216684441L1.1803005560834143,2.1259472939562096L0.045955595771471944,1.5855308309571767L-0.7260315230617732,1.2089024319015296"
vector-effect="non-scaling-stroke"
/><path
d="M2.015968364886647,6.666509291802611L3.6397911563042866,5.827973103343799L3.911517864338425,7.575653613731441L3.17398363352224,8.718749822233006L2.0139963772840432,7.986746007180413"
vector-effect="non-scaling-stroke"
/><path
d="M4.69767175035543,8.189877714874566L6.771583052051893,8.81625277766351L6.298202497161402,10.962078287418665L4.27285385212963,10.258894753870605"
vector-effect="non-scaling-stroke"
/><path
d="M4.247746846314308,10.217027273576509L4.001910335180094,9.478364760373296L4.576370743864508,8.996034348745052L5.281311337694578,8.664524851693617L6.277597272656165,8.491409415356777L6.596462005121967,9.45772468171239L7.279983348768109,10.217027273576509L6.402808517134338,10.86452397202146L6.009181928763554,11.477736118643165L5.281311337694579,12.097887435841075L4.576589169856573,11.43764187349202L4.2175978051295715,10.831162567943565"
vector-effect="non-scaling-stroke"
/><path
d="M-0.09435689924814629,4.516805681418491L1.2175923753786582,4.219492899508578L2.6468890371661007,4.449055135852598L2.693145738851312,6.126171079892004L1.2175923753786582,6.542083551538697L-0.3913365484044492,6.203175495540565"
vector-effect="non-scaling-stroke"
/><path
d="M1.8701365842399187,8.905349990880744L2.694604986233235,8.317331646503234L3.3032783201123834,7.953690852794966L4.186465600224168,7.635765239144435L4.478493408213926,8.541020516307844L4.725702232744683,9.205482034617772L4.993657098362888,10.387407466316263L3.7783645268204795,10.188795725471776L2.9555580308431577,10.400428905251243L1.840161089721917,10.064262390600895"
vector-effect="non-scaling-stroke"
/><path
d="M2.2395764418528743,7.085736463490337L2.870957755175955,6.262873879744095L3.9737909313387565,5.849390717543416L4.6727068297983045,6.787429226591628L5.256095233600064,7.894010237692301L4.37464596794306,8.867338262999159L3.1836288371896306,8.79831579912298L1.9492989064499007,8.359789524249988"
vector-effect="non-scaling-stroke"
/><path
d="M-6.704813572298036,13.296324496938503L-8.9938631858711,11.974741086353687"
vector-effect="non-scaling-stroke"
/><path
d="M-4.421123803677388,0.5293312920816479L-3.27934539659213,0.6222365746238838L-2.5974535590903747,1.791643185311655L-3.5729509707791047,2.6601845962544086L-4.569478979799922,2.705114290129808L-5.2703850506080405,2.0684972005652473L-5.303429568189117,1.059363730676545"
vector-effect="non-scaling-stroke"
/><path
d="M-2.4879998190446564,1.5862401481965938L-4.791016240576989,0.25659299727677365"
vector-effect="non-scaling-stroke"
/><path
d="M-0.8306082622967289,-1.1198789650960628L0.1970281275961772,-0.42286949013468084L0.8705094659038011,0.2375449931085222L0.5360646897756927,1.0992250295667092L-0.025137213822467443,1.8861799118356513L-1.2509740856311535,2.0851439126472413L-1.3501321802066293,0.8325641288627319L-1.4099559782543987,-0.024310526969038265"
vector-effect="non-scaling-stroke"
/><path
d="M-4.765382218822744,5.079134463118919L-3.2272771819160173,6.066138157501348L-4.604949547593598,7.17530064473945L-5.96366701853372,7.108125368942801L-5.909726747150148,5.737545029448017"
vector-effect="non-scaling-stroke"
/><path
d="M-4.7438062797917055,8.163241931885594L-4.249307345615771,10.272489335744856L-6.3443370265976755,10.935442504429695L-6.748036545538033,8.82984735953776"
vector-effect="non-scaling-stroke"
/><path
d="M-6.724331746918564,8.78717031454168L-6.207549501228429,8.204938394120106L-5.502608907398358,8.461270495695077L-4.863042964440978,8.90601220958509L-4.214977631305254,9.682263420526535L-4.89239883380104,10.441566012390654L-5.208213495691663,11.413164155949147L-6.207549501228427,10.977256817416437L-6.935420092297403,10.942972265593191L-7.836422182715664,10.62269350165882L-7.616993836904442,9.682263420526537L-7.271263033793435,9.068128126159483"
vector-effect="non-scaling-stroke"
/><path
d="M-3.9588469136903686,2.176687368938022L-3.0453918543731584,3.1642123782864453L-2.5295502519029256,4.5168007151106755L-3.958846913690367,5.39541816588505L-5.056814361623505,4.325507704301505L-5.5677758374734765,2.762680355422711"
vector-effect="non-scaling-stroke"
/><path
d="M-6.777191029574283,6.0722607859387985L-5.855718004455435,6.492262194493816L-5.236459172312164,6.837568367385192L-4.519533874321155,7.443468181436015L-5.157494037259712,8.148999320348334L-5.609330179687909,8.695319201586623L-6.4989301961085895,9.51833763812888L-6.934573668818617,8.366557527720394L-7.529256626779975,7.759802789694907L-7.795826355751721,6.6257574460552835"
vector-effect="non-scaling-stroke"
/><path
d="M-5.016639560977901,5.48239832410692L-3.9883290029684155,5.6177592890463695L-3.078825492384105,6.366099254639295L-3.5417327217181613,7.4403974323381945L-4.208365786775935,8.498917115854109L-5.492017215735518,8.222223672301434L-6.027750573963667,7.156261348788423L-6.265140645066565,5.868037134679835"
vector-effect="non-scaling-stroke"
/><path
d="M-14.867361577459109,0.8416233672204589L-14.867361577459109,-1.8015434539491748"
vector-effect="non-scaling-stroke"
/><path
d="M-2.6689762477994416,-3.56413988121988L-2.17854537908416,-2.5288781339203976L-2.850335292542351,-1.3536391746667418L-4.09026292450192,-1.7641740090437725L-4.627437185292683,-2.604727733500829L-4.426563648650519,-3.5300387412696748L-3.5691506867083023,-4.063222867895039"
vector-effect="non-scaling-stroke"
/><path
d="M-2.617724174363371,-1.3615509738054623L-2.6177241743633717,-4.0208452756451045"
vector-effect="non-scaling-stroke"
/><path
d="M0.5545395017886529,-1.279267338290247L0.4647297847400953,-0.040803381308969114L0.22953473437812089,0.8726558082617766L-0.6839244551926247,1.0138581542009286L-1.6460483266688006,0.9213204901672074L-2.4312746417145683,-0.04080338130896837L-1.3960877759781014,-0.7529667020944448L-0.6839244551926253,-1.233212958870568"
vector-effect="non-scaling-stroke"
/><path
d="M-6.781350583709392,-1.5873748286836924L-6.867068338220305,0.23816505415754902L-8.516467411932025,-0.4003529689919904L-9.137650652055962,-1.6106244532902052L-7.923723124434192,-2.2492009777323965"
vector-effect="non-scaling-stroke"
/><path
d="M-9.441478030147136,-0.02663578298897123L-11.020890397667666,1.456236558081348L-12.642539523759078,-0.026635782988970444L-11.020890397667666,-1.4290473943328452"
vector-effect="non-scaling-stroke"
/><path
d="M-10.972078593232872,-1.4298569590348302L-10.209459836408524,-1.2734263662531888L-10.078979651262866,-0.5347638530499741L-10.144354302135557,0.24148735789147194L-10.49257490396142,1.1908540051697574L-11.488860838923008,0.9838413306782637L-12.488196844459774,1.1961368823726373L-12.610358018362767,0.11273284539497817L-12.944602021060959,-0.5347638530499734L-13.117733520410244,-1.4751939341822566L-12.193583006761015,-1.7553784529654826L-11.488860838923008,-1.7630344417840826"
vector-effect="non-scaling-stroke"
/><path
d="M-3.8644900144422225,-2.3401183124804694L-4.262984229751817,-1.0552805212221328L-5.176439289069027,0.06774557925807742L-6.651992652541679,-0.7307529140069543L-6.274406737002163,-2.216575847237192L-5.176439289069028,-3.440495140117854"
vector-effect="non-scaling-stroke"
/><path
d="M-8.647327613814202,-2.8330892049419454L-8.55032299068867,-1.8250694520094177L-8.539737492424548,-1.1161224854097735L-8.705999474545324,-0.19229705770842004L-9.635987445473639,-0.3920211959595103L-10.335032412432593,-0.5101628330311485L-11.492587294471479,-0.8690698281873833L-10.712938195639097,-1.822238197751383L-10.484814657623133,-2.6406261155563353L-9.635987445473639,-3.438504944545612"
vector-effect="non-scaling-stroke"
/><path
d="M-7.256216002830776,-1.6033381393834165L-6.859286758144371,-0.6451145906977255L-7.052616423722863,0.5167085370958788L-8.214439551516467,0.652968205746567L-9.464461020376,0.6049068781618077L-9.866663183678579,-0.6451145906977247L-9.211379411153299,-1.6420544503345567L-8.214439551516467,-2.4917523895701548"
vector-effect="non-scaling-stroke"
/><path
d="M-8.162548005161076,-12.454701129718043L-5.873498391588013,-13.77628454030286"
vector-effect="non-scaling-stroke"
/><path
d="M1.752147555877946,-4.093471173301529L1.1008000175079693,-3.1511147085442817L-0.25288173345197723,-3.145282359978397L-0.5173119537228168,-4.424358605298181L-0.05795820549276237,-5.309842023630637L0.8438214019575201,-5.598535941834922L1.734278881480813,-5.122586598571584"
vector-effect="non-scaling-stroke"
/><path
d="M-0.12972435531871535,-2.947791122002056L2.173292066213617,-4.277438272921878"
vector-effect="non-scaling-stroke"
/><path
d="M1.3851477640853818,-0.15938837319418456L0.2677016571439182,0.3820661088257117L-0.6409747315256802,0.6351108151532545L-1.2199891449683173,-0.08536687536578023L-1.6209111128463336,-0.9648594216684436L-1.1803005560834152,-2.125947293956209L-0.04595559577147252,-1.5855308309571767L0.726031523061773,-1.20890243190153"
vector-effect="non-scaling-stroke"
/><path
d="M-2.0159683648866493,-6.666509291802611L-3.639791156304289,-5.8279731033437985L-3.9115178643384283,-7.57565361373144L-3.1739836335222438,-8.718749822233006L-2.013996377284046,-7.986746007180413"
vector-effect="non-scaling-stroke"
/><path
d="M-4.697671750355433,-8.189877714874564L-6.771583052051897,-8.816252777663507L-6.298202497161405,-10.962078287418665L-4.272853852129635,-10.258894753870605"
vector-effect="non-scaling-stroke"
/><path
d="M-4.247746846314311,-10.217027273576509L-4.0019103351800975,-9.478364760373294L-4.57637074386451,-8.99603434874505L-5.281311337694581,-8.664524851693617L-6.277597272656169,-8.491409415356777L-6.59646200512197,-9.457724681712389L-7.279983348768114,-10.217027273576507L-6.402808517134343,-10.864523972021459L-6.009181928763558,-11.477736118643163L-5.281311337694583,-12.097887435841075L-4.576589169856577,-11.43764187349202L-4.217597805129576,-10.831162567943563"
vector-effect="non-scaling-stroke"
/><path
d="M0.094356899248145,-4.516805681418492L-1.2175923753786597,-4.219492899508578L-2.6468890371661025,-4.449055135852597L-2.6931457388513143,-6.1261710798920035L-1.2175923753786606,-6.542083551538697L0.39133654840444704,-6.203175495540565"
vector-effect="non-scaling-stroke"
/><path
d="M-1.870136584239922,-8.905349990880744L-2.694604986233238,-8.317331646503234L-3.3032783201123865,-7.953690852794965L-4.186465600224171,-7.635765239144434L-4.478493408213929,-8.541020516307844L-4.725702232744687,-9.20548203461777L-4.993657098362892,-10.387407466316262L-3.778364526820483,-10.188795725471776L-2.9555580308431613,-10.400428905251243L-1.8401610897219205,-10.064262390600897"
vector-effect="non-scaling-stroke"
/><path
d="M-2.239576441852877,-7.085736463490337L-2.8709577551759575,-6.262873879744094L-3.9737909313387587,-5.849390717543415L-4.672706829798307,-6.787429226591627L-5.256095233600067,-7.8940102376923L-4.374645967943063,-8.867338262999159L-3.183628837189634,-8.798315799122978L-1.9492989064499033,-8.359789524249988"
vector-effect="non-scaling-stroke"
/><path
d="M6.704813572298041,-13.296324496938501L8.993863185871104,-11.974741086353685"
vector-effect="non-scaling-stroke"
/><path
d="M4.421123803677389,-0.5293312920816462L3.2793453965921304,-0.6222365746238827L2.5974535590903756,-1.7916431853116543L3.572950970779106,-2.6601845962544077L4.569478979799923,-2.705114290129807L5.270385050608042,-2.0684972005652456L5.3034295681891175,-1.0593637306765433"
vector-effect="non-scaling-stroke"
/><path
d="M2.487999819044657,-1.5862401481965929L4.79101624057699,-0.25659299727677204"
vector-effect="non-scaling-stroke"
/><path
d="M0.8306082622967287,1.1198789650960632L-0.19702812759617735,0.4228694901346808L-0.8705094659038012,-0.2375449931085225L-0.5360646897756923,-1.0992250295667094L0.025137213822468103,-1.8861799118356515L1.2509740856311544,-2.085143912647241L1.3501321802066297,-0.8325641288627315L1.4099559782543987,0.024310526969038675"
vector-effect="non-scaling-stroke"
/><path
d="M4.765382218822746,-5.079134463118917L3.22727718191602,-6.0661381575013475L4.604949547593602,-7.1753006447394485L5.963667018533724,-7.1081253689428L5.90972674715015,-5.7375450294480155"
vector-effect="non-scaling-stroke"
/><path
d="M4.743806279791709,-8.163241931885594L4.249307345615774,-10.272489335744856L6.34433702659768,-10.935442504429693L6.748036545538037,-8.829847359537759"
vector-effect="non-scaling-stroke"
/><path
d="M6.724331746918567,-8.787170314541678L6.207549501228432,-8.204938394120106L5.502608907398361,-8.461270495695077L4.863042964440981,-8.906012209585088L4.214977631305258,-9.682263420526535L4.892398833801044,-10.441566012390654L5.208213495691667,-11.413164155949145L6.207549501228431,-10.977256817416437L6.935420092297408,-10.94297226559319L7.836422182715668,-10.622693501658818L7.616993836904445,-9.682263420526535L7.271263033793439,-9.06812812615948"
vector-effect="non-scaling-stroke"
/><path
d="M3.958846913690369,-2.1766873689380213L3.0453918543731597,-3.1642123782864444L2.5295502519029274,-4.516800715110675L3.9588469136903686,-5.395418165885049L5.056814361623506,-4.325507704301503L5.567775837473478,-2.762680355422709"
vector-effect="non-scaling-stroke"
/><path
d="M6.777191029574285,-6.072260785938797L5.855718004455437,-6.492262194493814L5.236459172312166,-6.837568367385191L4.519533874321158,-7.443468181436014L5.157494037259715,-8.148999320348333L5.6093301796879125,-8.695319201586623L6.498930196108593,-9.518337638128878L6.93457366881862,-8.366557527720392L7.529256626779977,-7.759802789694906L7.795826355751724,-6.625757446055282"
vector-effect="non-scaling-stroke"
/><path
d="M5.016639560977903,-5.482398324106919L3.9883290029684177,-5.617759289046369L3.078825492384108,-6.366099254639295L3.541732721718164,-7.440397432338194L4.208365786775938,-8.498917115854107L5.492017215735522,-8.222223672301432L6.0277505739636705,-7.156261348788421L6.265140645066568,-5.868037134679833"
vector-effect="non-scaling-stroke"
/><path
d="M14.867361577459109,-0.8416233672204608L14.867361577459109,1.801543453949173"
vector-effect="non-scaling-stroke"
/><path
d="M2.668976247799442,3.56413988121988L2.17854537908416,2.5288781339203976L2.8503352925423515,1.3536391746667416L4.09026292450192,1.7641740090437719L4.627437185292684,2.604727733500828L4.42656364865052,3.5300387412696743L3.5691506867083027,4.063222867895038"
vector-effect="non-scaling-stroke"
/><path
d="M2.6177241743633712,1.3615509738054619L2.617724174363372,4.020845275645104"
vector-effect="non-scaling-stroke"
/><path
d="M-0.5545395017886526,1.2792673382902473L-0.4647297847400953,0.04080338130896917L-0.229534734378121,-0.8726558082617765L0.6839244551926246,-1.0138581542009288L1.6460483266688006,-0.9213204901672076L2.4312746417145683,0.04080338130896807L1.3960877759781016,0.7529667020944447L0.6839244551926256,1.2332129588705678"
vector-effect="non-scaling-stroke"
/><path
d="M6.781350583709392,1.5873748286836917L6.867068338220305,-0.23816505415754988L8.516467411932025,0.40035296899198936L9.137650652055962,1.610624453290204L7.923723124434193,2.2492009777323956"
vector-effect="non-scaling-stroke"
/><path
d="M9.441478030147136,0.026635782988970073L11.020890397667666,-1.4562365580813494L12.642539523759078,0.026635782988968893L11.020890397667666,1.429047394332844"
vector-effect="non-scaling-stroke"
/><path
d="M10.972078593232872,1.429856959034829L10.209459836408524,1.2734263662531877L10.078979651262866,0.5347638530499729L10.144354302135557,-0.2414873578914732L10.49257490396142,-1.1908540051697587L11.488860838923008,-0.9838413306782651L12.488196844459774,-1.1961368823726388L12.610358018362767,-0.11273284539497973L12.944602021060959,0.5347638530499718L13.117733520410244,1.475193934182255L12.193583006761015,1.7553784529654812L11.488860838923008,1.763034441784081"
vector-effect="non-scaling-stroke"
/><path
d="M3.8644900144422225,2.340118312480469L4.262984229751817,1.0552805212221321L5.176439289069027,-0.06774557925807805L6.651992652541679,0.7307529140069534L6.274406737002164,2.2165758472371917L5.1764392890690285,3.440495140117853"
vector-effect="non-scaling-stroke"
/><path
d="M8.647327613814202,2.833089204941944L8.55032299068867,1.8250694520094168L8.539737492424548,1.1161224854097727L8.705999474545324,0.19229705770841896L9.635987445473639,0.3920211959595091L10.335032412432593,0.5101628330311472L11.492587294471479,0.869069828187382L10.712938195639097,1.8222381977513817L10.484814657623133,2.640626115556334L9.635987445473639,3.438504944545611"
vector-effect="non-scaling-stroke"
/><path
d="M7.256216002830776,1.6033381393834156L6.859286758144371,0.6451145906977247L7.052616423722863,-0.5167085370958797L8.214439551516467,-0.652968205746568L9.464461020376,-0.6049068781618089L9.866663183678579,0.6451145906977235L9.211379411153299,1.6420544503345555L8.214439551516467,2.4917523895701534"
vector-effect="non-scaling-stroke"
/><path
d="M-8.16254800516107,12.454701129718044L-5.873498391588008,13.77628454030286"
vector-effect="non-scaling-stroke"
/><path
d="M1.7521475558779473,4.093471173301528L1.1008000175079704,3.151114708544281L-0.2528817334519763,3.145282359978397L-0.5173119537228152,4.424358605298181L-0.05795820549276083,5.309842023630637L0.8438214019575221,5.598535941834921L1.7342788814808145,5.1225865985715835"
vector-effect="non-scaling-stroke"
/><path
d="M-0.12972435531871446,2.9477911220020556L2.173292066213618,4.277438272921877"
vector-effect="non-scaling-stroke"
/><path
d="M1.3851477640853818,0.15938837319418406L0.267701657143918,-0.38206610882571174L-0.6409747315256803,-0.6351108151532543L-1.2199891449683173,0.08536687536578065L-1.6209111128463332,0.9648594216684441L-1.1803005560834143,2.1259472939562096L-0.045955595771471944,1.5855308309571767L0.7260315230617732,1.2089024319015296"
vector-effect="non-scaling-stroke"
/><path
d="M-2.015968364886647,6.666509291802611L-3.6397911563042866,5.827973103343799L-3.911517864338425,7.575653613731441L-3.17398363352224,8.718749822233006L-2.0139963772840432,7.986746007180413"
vector-effect="non-scaling-stroke"
/><path
d="M-4.69767175035543,8.189877714874566L-6.771583052051893,8.81625277766351L-6.298202497161402,10.962078287418665L-4.27285385212963,10.258894753870605"
vector-effect="non-scaling-stroke"
/><path
d="M-4.247746846314308,10.217027273576509L-4.001910335180094,9.478364760373296L-4.576370743864508,8.996034348745052L-5.281311337694578,8.664524851693617L-6.277597272656165,8.491409415356777L-6.596462005121967,9.45772468171239L-7.279983348768109,10.217027273576509L-6.402808517134338,10.86452397202146L-6.009181928763554,11.477736118643165L-5.281311337694579,12.097887435841075L-4.576589169856573,11.43764187349202L-4.2175978051295715,10.831162567943565"
vector-effect="non-scaling-stroke"
/><path
d="M0.09435689924814629,4.516805681418491L-1.2175923753786582,4.219492899508578L-2.6468890371661007,4.449055135852598L-2.693145738851312,6.126171079892004L-1.2175923753786582,6.542083551538697L0.3913365484044492,6.203175495540565"
vector-effect="non-scaling-stroke"
/><path
d="M-1.8701365842399187,8.905349990880744L-2.694604986233235,8.317331646503234L-3.3032783201123834,7.953690852794966L-4.186465600224168,7.635765239144435L-4.478493408213926,8.541020516307844L-4.725702232744683,9.205482034617772L-4.993657098362888,10.387407466316263L-3.7783645268204795,10.188795725471776L-2.9555580308431577,10.400428905251243L-1.840161089721917,10.064262390600895"
vector-effect="non-scaling-stroke"
/><path
d="M-2.2395764418528743,7.085736463490337L-2.870957755175955,6.262873879744095L-3.9737909313387565,5.849390717543416L-4.6727068297983045,6.787429226591628L-5.256095233600064,7.894010237692301L-4.37464596794306,8.867338262999159L-3.1836288371896306,8.79831579912298L-1.9492989064499007,8.359789524249988"
vector-effect="non-scaling-stroke"
/><path
d="M6.704813572298036,13.296324496938503L8.9938631858711,11.974741086353687"
vector-effect="non-scaling-stroke"
/><path
d="M4.421123803677388,0.5293312920816479L3.27934539659213,0.6222365746238838L2.5974535590903747,1.791643185311655L3.5729509707791047,2.6601845962544086L4.569478979799922,2.705114290129808L5.2703850506080405,2.0684972005652473L5.303429568189117,1.059363730676545"
vector-effect="non-scaling-stroke"
/><path
d="M2.4879998190446564,1.5862401481965938L4.791016240576989,0.25659299727677365"
vector-effect="non-scaling-stroke"
/><path
d="M0.8306082622967289,-1.1198789650960628L-0.1970281275961772,-0.42286949013468084L-0.8705094659038011,0.2375449931085222L-0.5360646897756927,1.0992250295667092L0.025137213822467443,1.8861799118356513L1.2509740856311535,2.0851439126472413L1.3501321802066293,0.8325641288627319L1.4099559782543987,-0.024310526969038265"
vector-effect="non-scaling-stroke"
/><path
d="M4.765382218822744,5.079134463118919L3.2272771819160173,6.066138157501348L4.604949547593598,7.17530064473945L5.96366701853372,7.108125368942801L5.909726747150148,5.737545029448017"
vector-effect="non-scaling-stroke"
/><path
d="M4.7438062797917055,8.163241931885594L4.249307345615771,10.272489335744856L6.3443370265976755,10.935442504429695L6.748036545538033,8.82984735953776"
vector-effect="non-scaling-stroke"
/><path
d="M6.724331746918564,8.78717031454168L6.207549501228429,8.204938394120106L5.502608907398358,8.461270495695077L4.863042964440978,8.90601220958509L4.214977631305254,9.682263420526535L4.89239883380104,10.441566012390654L5.208213495691663,11.413164155949147L6.207549501228427,10.977256817416437L6.935420092297403,10.942972265593191L7.836422182715664,10.62269350165882L7.616993836904442,9.682263420526537L7.271263033793435,9.068128126159483"
vector-effect="non-scaling-stroke"
/><path
d="M3.9588469136903686,2.176687368938022L3.0453918543731584,3.1642123782864453L2.5295502519029256,4.5168007151106755L3.958846913690367,5.39541816588505L5.056814361623505,4.325507704301505L5.5677758374734765,2.762680355422711"
vector-effect="non-scaling-stroke"
/><path
d="M6.777191029574283,6.0722607859387985L5.855718004455435,6.492262194493816L5.236459172312164,6.837568367385192L4.519533874321155,7.443468181436015L5.157494037259712,8.148999320348334L5.609330179687909,8.695319201586623L6.4989301961085895,9.51833763812888L6.934573668818617,8.366557527720394L7.529256626779975,7.759802789694907L7.795826355751721,6.6257574460552835"
vector-effect="non-scaling-stroke"
/><path
d="M5.016639560977901,5.48239832410692L3.9883290029684155,5.6177592890463695L3.078825492384105,6.366099254639295L3.5417327217181613,7.4403974323381945L4.208365786775935,8.498917115854109L5.492017215735518,8.222223672301434L6.027750573963667,7.156261348788423L6.265140645066565,5.868037134679835"
vector-effect="non-scaling-stroke"
/><path
d="M14.867361577459109,0.8416233672204589L14.867361577459109,-1.8015434539491748"
vector-effect="non-scaling-stroke"
/><path
d="M2.6689762477994416,-3.56413988121988L2.17854537908416,-2.5288781339203976L2.850335292542351,-1.3536391746667418L4.09026292450192,-1.7641740090437725L4.627437185292683,-2.604727733500829L4.426563648650519,-3.5300387412696748L3.5691506867083023,-4.063222867895039"
vector-effect="non-scaling-stroke"
/><path
d="M2.617724174363371,-1.3615509738054623L2.6177241743633717,-4.0208452756451045"
vector-effect="non-scaling-stroke"
/><path
d="M-0.5545395017886529,-1.279267338290247L-0.4647297847400953,-0.040803381308969114L-0.22953473437812089,0.8726558082617766L0.6839244551926247,1.0138581542009286L1.6460483266688006,0.9213204901672074L2.4312746417145683,-0.04080338130896837L1.3960877759781014,-0.7529667020944448L0.6839244551926253,-1.233212958870568"
vector-effect="non-scaling-stroke"
/><path
d="M6.781350583709392,-1.5873748286836924L6.867068338220305,0.23816505415754902L8.516467411932025,-0.4003529689919904L9.137650652055962,-1.6106244532902052L7.923723124434192,-2.2492009777323965"
vector-effect="non-scaling-stroke"
/><path
d="M9.441478030147136,-0.02663578298897123L11.020890397667666,1.456236558081348L12.642539523759078,-0.026635782988970444L11.020890397667666,-1.4290473943328452"
vector-effect="non-scaling-stroke"
/><path
d="M10.972078593232872,-1.4298569590348302L10.209459836408524,-1.2734263662531888L10.078979651262866,-0.5347638530499741L10.144354302135557,0.24148735789147194L10.49257490396142,1.1908540051697574L11.488860838923008,0.9838413306782637L12.488196844459774,1.1961368823726373L12.610358018362767,0.11273284539497817L12.944602021060959,-0.5347638530499734L13.117733520410244,-1.4751939341822566L12.193583006761015,-1.7553784529654826L11.488860838923008,-1.7630344417840826"
vector-effect="non-scaling-stroke"
/><path
d="M3.8644900144422225,-2.3401183124804694L4.262984229751817,-1.0552805212221328L5.176439289069027,0.06774557925807742L6.651992652541679,-0.7307529140069543L6.274406737002163,-2.216575847237192L5.176439289069028,-3.440495140117854"
vector-effect="non-scaling-stroke"
/><path
d="M8.647327613814202,-2.8330892049419454L8.55032299068867,-1.8250694520094177L8.539737492424548,-1.1161224854097735L8.705999474545324,-0.19229705770842004L9.635987445473639,-0.3920211959595103L10.335032412432593,-0.5101628330311485L11.492587294471479,-0.8690698281873833L10.712938195639097,-1.822238197751383L10.484814657623133,-2.6406261155563353L9.635987445473639,-3.438504944545612"
vector-effect="non-scaling-stroke"
/><path
d="M7.256216002830776,-1.6033381393834165L6.859286758144371,-0.6451145906977255L7.052616423722863,0.5167085370958788L8.214439551516467,0.652968205746567L9.464461020376,0.6049068781618077L9.866663183678579,-0.6451145906977247L9.211379411153299,-1.6420544503345567L8.214439551516467,-2.4917523895701548"
vector-effect="non-scaling-stroke"
/><path
d="M8.162548005161076,-12.454701129718043L5.873498391588013,-13.77628454030286"
vector-effect="non-scaling-stroke"
/><path
d="M-1.752147555877946,-4.093471173301529L-1.1008000175079693,-3.1511147085442817L0.25288173345197723,-3.145282359978397L0.5173119537228168,-4.424358605298181L0.05795820549276237,-5.309842023630637L-0.8438214019575201,-5.598535941834922L-1.734278881480813,-5.122586598571584"
vector-effect="non-scaling-stroke"
/><path
d="M0.12972435531871535,-2.947791122002056L-2.173292066213617,-4.277438272921878"
vector-effect="non-scaling-stroke"
/><path
d="M-1.3851477640853818,-0.15938837319418456L-0.2677016571439182,0.3820661088257117L0.6409747315256802,0.6351108151532545L1.2199891449683173,-0.08536687536578023L1.6209111128463336,-0.9648594216684436L1.1803005560834152,-2.125947293956209L0.04595559577147252,-1.5855308309571767L-0.726031523061773,-1.20890243190153"
vector-effect="non-scaling-stroke"
/><path
d="M2.0159683648866493,-6.666509291802611L3.639791156304289,-5.8279731033437985L3.9115178643384283,-7.57565361373144L3.1739836335222438,-8.718749822233006L2.013996377284046,-7.986746007180413"
vector-effect="non-scaling-stroke"
/><path
d="M4.697671750355433,-8.189877714874564L6.771583052051897,-8.816252777663507L6.298202497161405,-10.962078287418665L4.272853852129635,-10.258894753870605"
vector-effect="non-scaling-stroke"
/><path
d="M4.247746846314311,-10.217027273576509L4.0019103351800975,-9.478364760373294L4.57637074386451,-8.99603434874505L5.281311337694581,-8.664524851693617L6.277597272656169,-8.491409415356777L6.59646200512197,-9.457724681712389L7.279983348768114,-10.217027273576507L6.402808517134343,-10.864523972021459L6.009181928763558,-11.477736118643163L5.281311337694583,-12.097887435841075L4.576589169856577,-11.43764187349202L4.217597805129576,-10.831162567943563"
vector-effect="non-scaling-stroke"
/><path
d="M-0.094356899248145,-4.516805681418492L1.2175923753786597,-4.219492899508578L2.6468890371661025,-4.449055135852597L2.6931457388513143,-6.1261710798920035L1.2175923753786606,-6.542083551538697L-0.39133654840444704,-6.203175495540565"
vector-effect="non-scaling-stroke"
/><path
d="M1.870136584239922,-8.905349990880744L2.694604986233238,-8.317331646503234L3.3032783201123865,-7.953690852794965L4.186465600224171,-7.635765239144434L4.478493408213929,-8.541020516307844L4.725702232744687,-9.20548203461777L4.993657098362892,-10.387407466316262L3.778364526820483,-10.188795725471776L2.9555580308431613,-10.400428905251243L1.8401610897219205,-10.064262390600897"
vector-effect="non-scaling-stroke"
/><path
d="M2.239576441852877,-7.085736463490337L2.8709577551759575,-6.262873879744094L3.9737909313387587,-5.849390717543415L4.672706829798307,-6.787429226591627L5.256095233600067,-7.8940102376923L4.374645967943063,-8.867338262999159L3.183628837189634,-8.798315799122978L1.9492989064499033,-8.359789524249988"
vector-effect="non-scaling-stroke"
/><path
d="M-6.704813572298041,-13.296324496938501L-8.993863185871104,-11.974741086353685"
vector-effect="non-scaling-stroke"
/><path
d="M-4.421123803677389,-0.5293312920816462L-3.2793453965921304,-0.6222365746238827L-2.5974535590903756,-1.7916431853116543L-3.572950970779106,-2.6601845962544077L-4.569478979799923,-2.705114290129807L-5.270385050608042,-2.0684972005652456L-5.3034295681891175,-1.0593637306765433"
vector-effect="non-scaling-stroke"
/><path
d="M-2.487999819044657,-1.5862401481965929L-4.79101624057699,-0.25659299727677204"
vector-effect="non-scaling-stroke"
/><path
d="M-0.8306082622967287,1.1198789650960632L0.19702812759617735,0.4228694901346808L0.8705094659038012,-0.2375449931085225L0.5360646897756923,-1.0992250295667094L-0.025137213822468103,-1.8861799118356515L-1.2509740856311544,-2.085143912647241L-1.3501321802066297,-0.8325641288627315L-1.4099559782543987,0.024310526969038675"
vector-effect="non-scaling-stroke"
/><path
d="M-4.765382218822746,-5.079134463118917L-3.22727718191602,-6.0661381575013475L-4.604949547593602,-7.1753006447394485L-5.963667018533724,-7.1081253689428L-5.90972674715015,-5.7375450294480155"
vector-effect="non-scaling-stroke"
/><path
d="M-4.743806279791709,-8.163241931885594L-4.249307345615774,-10.272489335744856L-6.34433702659768,-10.935442504429693L-6.748036545538037,-8.829847359537759"
vector-effect="non-scaling-stroke"
/><path
d="M-6.724331746918567,-8.787170314541678L-6.207549501228432,-8.204938394120106L-5.502608907398361,-8.461270495695077L-4.863042964440981,-8.906012209585088L-4.214977631305258,-9.682263420526535L-4.892398833801044,-10.441566012390654L-5.208213495691667,-11.413164155949145L-6.207549501228431,-10.977256817416437L-6.935420092297408,-10.94297226559319L-7.836422182715668,-10.622693501658818L-7.616993836904445,-9.682263420526535L-7.271263033793439,-9.06812812615948"
vector-effect="non-scaling-stroke"
/><path
d="M-3.958846913690369,-2.1766873689380213L-3.0453918543731597,-3.1642123782864444L-2.5295502519029274,-4.516800715110675L-3.9588469136903686,-5.395418165885049L-5.056814361623506,-4.325507704301503L-5.567775837473478,-2.762680355422709"
vector-effect="non-scaling-stroke"
/><path
d="M-6.777191029574285,-6.072260785938797L-5.855718004455437,-6.492262194493814L-5.236459172312166,-6.837568367385191L-4.519533874321158,-7.443468181436014L-5.157494037259715,-8.148999320348333L-5.6093301796879125,-8.695319201586623L-6.498930196108593,-9.518337638128878L-6.93457366881862,-8.366557527720392L-7.529256626779977,-7.759802789694906L-7.795826355751724,-6.625757446055282"
vector-effect="non-scaling-stroke"
/><path
d="M-5.016639560977903,-5.482398324106919L-3.9883290029684177,-5.617759289046369L-3.078825492384108,-6.366099254639295L-3.541732721718164,-7.440397432338194L-4.208365786775938,-8.498917115854107L-5.492017215735522,-8.222223672301432L-6.0277505739636705,-7.156261348788421L-6.265140645066568,-5.868037134679833"
vector-effect="non-scaling-stroke"
/><path
d="M-14.867361577459109,-0.8416233672204608L-14.867361577459109,1.801543453949173"
vector-effect="non-scaling-stroke"
/><path
d="M-2.668976247799442,3.56413988121988L-2.17854537908416,2.5288781339203976L-2.8503352925423515,1.3536391746667416L-4.09026292450192,1.7641740090437719L-4.627437185292684,2.604727733500828L-4.42656364865052,3.5300387412696743L-3.5691506867083027,4.063222867895038"
vector-effect="non-scaling-stroke"
/><path
d="M-2.6177241743633712,1.3615509738054619L-2.617724174363372,4.020845275645104"
vector-effect="non-scaling-stroke"
/><path
d="M0.5545395017886526,1.2792673382902473L0.4647297847400953,0.04080338130896917L0.229534734378121,-0.8726558082617765L-0.6839244551926246,-1.0138581542009288L-1.6460483266688006,-0.9213204901672076L-2.4312746417145683,0.04080338130896807L-1.3960877759781016,0.7529667020944447L-0.6839244551926256,1.2332129588705678"
vector-effect="non-scaling-stroke"
/><path
d="M-6.781350583709392,1.5873748286836917L-6.867068338220305,-0.23816505415754988L-8.516467411932025,0.40035296899198936L-9.137650652055962,1.610624453290204L-7.923723124434193,2.2492009777323956"
vector-effect="non-scaling-stroke"
/><path
d="M-9.441478030147136,0.026635782988970073L-11.020890397667666,-1.4562365580813494L-12.642539523759078,0.026635782988968893L-11.020890397667666,1.429047394332844"
vector-effect="non-scaling-stroke"
/><path
d="M-10.972078593232872,1.429856959034829L-10.209459836408524,1.2734263662531877L-10.078979651262866,0.5347638530499729L-10.144354302135557,-0.2414873578914732L-10.49257490396142,-1.1908540051697587L-11.488860838923008,-0.9838413306782651L-12.488196844459774,-1.1961368823726388L-12.610358018362767,-0.11273284539497973L-12.944602021060959,0.5347638530499718L-13.117733520410244,1.475193934182255L-12.193583006761015,1.7553784529654812L-11.488860838923008,1.763034441784081"
vector-effect="non-scaling-stroke"
/><path
d="M-3.8644900144422225,2.340118312480469L-4.262984229751817,1.0552805212221321L-5.176439289069027,-0.06774557925807805L-6.651992652541679,0.7307529140069534L-6.274406737002164,2.2165758472371917L-5.1764392890690285,3.440495140117853"
vector-effect="non-scaling-stroke"
/><path
d="M-8.647327613814202,2.833089204941944L-8.55032299068867,1.8250694520094168L-8.539737492424548,1.1161224854097727L-8.705999474545324,0.19229705770841896L-9.635987445473639,0.3920211959595091L-10.335032412432593,0.5101628330311472L-11.492587294471479,0.869069828187382L-10.712938195639097,1.8222381977513817L-10.484814657623133,2.640626115556334L-9.635987445473639,3.438504944545611"
vector-effect="non-scaling-stroke"
/><path
d="M-7.256216002830776,1.6033381393834156L-6.859286758144371,0.6451145906977247L-7.052616423722863,-0.5167085370958797L-8.214439551516467,-0.652968205746568L-9.464461020376,-0.6049068781618089L-9.866663183678579,0.6451145906977235L-9.211379411153299,1.6420544503345555L-8.214439551516467,2.4917523895701534"
vector-effect="non-scaling-stroke"
/></g><g id="2-layer"
stroke="#0076FE"
opacity="0.5"
fill="none"><path
d="M2.1583933577209544,6.3257383279279855L2.8636448593069037,4.97603607413885L4.125879392745673,5.812421326202057L5.113783639626456,6.700707090367553L4.456900441809622,7.928490090513626L3.2425732685333317,8.099604068452667L2.040310045096453,7.631465077679886"
vector-effect="non-scaling-stroke"
/><path
d="M5.584735335225592,11.917923162178534L5.950708196018565,11.299128800031944L6.623652201733021,11.071095818086617L7.684513070657806,10.83682748467316L7.994130569184043,11.859459923797983L7.9395231520180145,12.860830683822735L7.061021592226431,13.30277476079816L6.093359671930922,13.558078987793627L4.970626072561956,13.055487317111288"
vector-effect="non-scaling-stroke"
/><path
d="M2.2173194299138004,10.905510431814955L2.4860224021585497,9.872604521532699L3.5900704532009007,9.875801409901564L4.611730470747823,10.388148050432587L4.521251820122536,11.522847255187292L4.064023958941946,12.605783392304323L2.842791713687125,12.664683633183005L1.9688101672751066,11.914038799089289"
vector-effect="non-scaling-stroke"
/><path
d="M1.9106515781175746,4.919990036469709L3.5513728910489615,4.514439120844355L4.570174868128122,6.028466839543135L3.1840630774403484,6.945733911274565L1.2612508668433782,6.835201106557492"
vector-effect="non-scaling-stroke"
/><path
d="M-0.9578058554567473,1.3494276871138056L-0.30204427766244185,0.06410291322844999L1.0217291928228387,0.5763720018270342L2.0395390877748785,1.0167539592779724L2.5446344265655405,2.28790373221991L1.5605703699543587,3.2902461178227473L0.23524968197908516,3.511553495407844L-0.5819979811760421,2.53029909172737"
vector-effect="non-scaling-stroke"
/><path
d="M1.691288316209738,6.190771789838123L2.210141866916341,5.297355018953288L3.42638177583601,4.611416216655068L4.357405895077365,5.686156051863192L4.7337925561467245,7.006008343897505L3.463479462878477,7.468199414195939L2.495202230354227,8.086625591361981L1.6552876366489457,7.246224755749044"
vector-effect="non-scaling-stroke"
/><path
d="M-1.1325516012458339,1.7112043103364236L0.3320347122244005,1.0151919148813449L1.2841392859363612,2.007085780740631L2.01110814908569,3.526197113430919L0.33203471222440073,4.4707515708197185L-1.2047943242549177,3.4440722705796736"
vector-effect="non-scaling-stroke"
/><path
d="M7.385816170161397,9.579379778304776L4.428184182218394,11.286969402707518"
vector-effect="non-scaling-stroke"
/><path
d="M1.958685456825189,10.550474195051226L1.9766814848946008,9.483005043417025L3.11128069687776,9.70570996070306L3.8283168233564226,9.554870232944113L4.815019804726308,9.83127900555566L4.579489381666416,10.825931787352944L4.504970890751266,11.759487049605747L3.611325882666483,12.058237597864432L2.864985888748358,11.718546937513347L1.7935481275253629,11.575726491736456"
vector-effect="non-scaling-stroke"
/><path
d="M3.6930502240632976,9.358547356964726L5.423350923838607,8.981622942684625L6.5541336487790565,9.704679221119651L7.118157418011341,11.33603391739395L5.4233509238386075,11.912163283905995L4.408769349357566,10.943305876900462"
vector-effect="non-scaling-stroke"
/><path
d="M-4.3990534108180555,5.032092643109933L-2.877551220698578,4.968007232645919L-2.970764829616582,6.479327030169494L-3.246090743763582,7.7790200865575345L-4.637823611133172,7.824034050002034L-5.3931762496091356,6.857952858408539L-5.588887602816339,5.582692869490046"
vector-effect="non-scaling-stroke"
/><path
d="M-7.528856551184781,10.795484254807233L-6.809978483450761,10.803028868276318L-6.276024125328161,11.271798981576834L-5.542711362827472,12.073397277239803L-6.273528284580493,12.852850115982125L-7.168044509951874,13.306244085493667L-7.990030087560448,12.766411455937615L-8.694960993979826,12.056043764184604L-8.82107063912294,10.83243211010757"
vector-effect="non-scaling-stroke"
/><path
d="M-8.335789360231054,7.3730101705176585L-7.306915116085154,7.089260815412867L-6.7576596771044795,8.046992918798676L-6.690534874574499,9.187949768290677L-7.718452536858717,9.676942560726394L-8.884916672868547,9.822439686184493L-9.54654190038592,8.794271658312452L-9.333455178047215,7.662059019633977"
vector-effect="non-scaling-stroke"
/><path
d="M-3.3055105688903073,4.114667822665502L-2.133932516965017,5.332798702381964L-2.9357179948523804,6.972120955307718L-4.423150476370648,6.230346467952683L-5.288832364832604,4.5098758445102565"
vector-effect="non-scaling-stroke"
/><path
d="M-1.647541585339008,-0.15477035916212642L-0.2065368901436482,-0.22952656090917029L0.011711800799116935,1.1730294376862644L0.13923478575430667,2.2746696416633707L-0.7090655402329012,3.3476699228601605L-2.069151537760447,2.9966166436851283L-2.923469692781692,1.95950894853002L-2.482302283196615,0.7611245092139753"
vector-effect="non-scaling-stroke"
/><path
d="M-4.515721480927002,4.560084541880503L-3.482573085820373,4.562716512193762L-2.280412703128808,5.273041769265556L-2.7456526432574675,6.616702225668664L-3.7004849268676194,7.602588781817489L-4.735910681782507,6.733560907436413L-5.75562207783572,6.204221314747342L-5.447770901685887,5.056633521782814"
vector-effect="non-scaling-stroke"
/><path
d="M-2.04822220443969,-0.1252163026074238L-0.7131646318916137,0.7951464531652588L-1.0961176307277292,2.1156401339888133L-2.0482222044396883,3.5047693035815692L-3.705767078226859,2.522926281134446L-3.5850512409190087,0.6786536441497721"
vector-effect="non-scaling-stroke"
/><path
d="M-4.60307815543018,11.185994320194048L-7.560710143373183,9.478404695791308"
vector-effect="non-scaling-stroke"
/><path
d="M-8.157635946473942,6.971508461159355L-7.224182529367796,6.453358902817583L-6.849751039293635,7.547303102151822L-6.360601939915127,8.092854739234062L-6.106627468140659,9.085568973395999L-7.085787256651914,9.37892003456068L-7.93152907505706,9.78116275950288L-8.637077143286,9.15661875466565L-8.716066398952712,8.340424029896688L-9.128099145341604,7.341121487215204"
vector-effect="non-scaling-stroke"
/><path
d="M-6.258214641619517,7.877548989972992L-5.066638173658726,9.18757114502435L-5.127431916679067,10.528385850200884L-6.2582146416195155,11.832522110831444L-7.604560555971549,10.652841315635035L-7.2727962161005575,9.289759194420075"
vector-effect="non-scaling-stroke"
/><path
d="M-6.557446768539011,-1.2936456848180529L-5.741196080005483,-0.008028841492931834L-7.096644222362255,0.6669057039674369L-8.35987438339004,1.0783129961899818L-9.094724052942794,-0.10445604051159246L-8.635749518142468,-1.2416512100441277L-7.629197647912792,-2.048772208189841"
vector-effect="non-scaling-stroke"
/><path
d="M-13.113591886410374,-1.1224389073713008L-12.760686679469327,-0.4960999317556266L-12.899676327061183,0.20070316349021725L-13.22722443348528,1.2365697925666421L-14.267658853764537,0.9933901921841437L-15.10756766196989,0.44541340167093196L-15.05105167978688,-0.5363633048605446L-14.78832066591075,-1.5020352236090222L-13.791696711684898,-2.2230552070037177"
vector-effect="non-scaling-stroke"
/><path
d="M-10.553108790144854,-3.5325002612972978L-9.792937518243704,-2.7833437061198305L-10.347730130305381,-1.8288084911028895L-11.302265345322322,-1.2001982821419117L-12.239704356981253,-1.8459046944608997L-12.948940631810494,-2.7833437061198296L-12.389333614073045,-3.870411974870554L-11.302265345322322,-4.251979779455311"
vector-effect="non-scaling-stroke"
/><path
d="M-5.216162147007882,-0.8053222138042072L-5.6853054080139795,0.8183595815376088L-7.505892862980503,0.9436541157645828L-7.607213553810998,-0.7153874433218823L-6.550083231675983,-2.325325262047236"
vector-effect="non-scaling-stroke"
/><path
d="M-0.6897357298822608,-1.5041980462759321L0.09550738751879369,-0.2936294741376203L-1.0100173920237219,0.5966574358592303L-1.9003043020205719,1.2579156823853985L-3.2536999667984423,1.0597661906402507L-3.629721907714806,-0.2936294741376194L-3.158719374760777,-1.552044546877824L-1.900304302020573,-1.7691745825133949"
vector-effect="non-scaling-stroke"
/><path
d="M-6.207009797136741,-1.6306872479576195L-5.692714952736715,-0.7346385067595268L-5.706794478964818,0.6616255526104882L-7.1030585383348335,0.9305461738054721L-8.434277483014345,0.5965804379199845L-8.199390144660985,-0.7346385067595261L-8.250824308189948,-1.8824042766146392L-7.1030585383348335,-2.1895912339662296"
vector-effect="non-scaling-stroke"
/><path
d="M-0.9156706031938562,-1.8364206129438476L-1.0451993441160143,-0.22004546171608605L-2.3802569166640906,0.10855435324818259L-4.059330353525379,-0.021427809849349725L-4.03780179045126,-1.9478252896852726L-2.3802569166640914,-2.7654186264299017"
vector-effect="non-scaling-stroke"
/><path
d="M-11.988894325591579,1.6066145418892726L-11.988894325591579,-1.8085647069162092"
vector-effect="non-scaling-stroke"
/><path
d="M-10.116321403299132,-3.5789657338918706L-9.200864014262397,-3.029646140599442L-9.961031736171396,-2.1584068585512384L-10.18891876327155,-1.4620154937100514L-10.921647272866968,-0.7457100321596597L-11.665276638318332,-1.4470117527922648L-12.436499965808327,-1.9783242901028668L-12.248403025952484,-2.9016188431987806L-11.581052287701072,-3.378122907616658L-10.921647272866968,-4.234605004521251"
vector-effect="non-scaling-stroke"
/><path
d="M-9.951264865682816,-1.480998366991734L-10.489989097497334,0.20594820233972505L-11.681565565458126,0.8237066290812335L-13.376372059630858,0.49648819343749395L-13.027911479810157,-1.2593219682709595L-11.681565565458126,-1.6535466824803873"
vector-effect="non-scaling-stroke"
/><path
d="M-2.158393357720957,-6.3257383279279855L-2.863644859306906,-4.976036074138849L-4.1258793927456745,-5.812421326202056L-5.113783639626459,-6.700707090367552L-4.4569004418096245,-7.928490090513625L-3.242573268533335,-8.099604068452667L-2.040310045096456,-7.631465077679886"
vector-effect="non-scaling-stroke"
/><path
d="M-5.584735335225597,-11.917923162178532L-5.950708196018569,-11.299128800031944L-6.623652201733026,-11.071095818086615L-7.68451307065781,-10.836827484673158L-7.994130569184048,-11.859459923797981L-7.939523152018019,-12.860830683822734L-7.061021592226436,-13.302774760798158L-6.093359671930927,-13.558078987793625L-4.97062607256196,-13.055487317111286"
vector-effect="non-scaling-stroke"
/><path
d="M-2.2173194299138044,-10.905510431814955L-2.4860224021585537,-9.872604521532699L-3.5900704532009042,-9.875801409901564L-4.611730470747826,-10.388148050432587L-4.521251820122539,-11.522847255187292L-4.0640239589419505,-12.605783392304323L-2.8427917136871295,-12.664683633183005L-1.9688101672751108,-11.914038799089289"
vector-effect="non-scaling-stroke"
/><path
d="M-1.9106515781175764,-4.919990036469709L-3.5513728910489633,-4.514439120844354L-4.570174868128125,-6.028466839543134L-3.184063077440351,-6.945733911274565L-1.2612508668433808,-6.835201106557493"
vector-effect="non-scaling-stroke"
/><path
d="M0.9578058554567469,-1.3494276871138058L0.3020442776624419,-0.06410291322845012L-1.021729192822839,-0.5763720018270339L-2.039539087774879,-1.0167539592779717L-2.5446344265655414,-2.2879037322199096L-1.56057036995436,-3.2902461178227473L-0.23524968197908622,-3.511553495407844L0.5819979811760412,-2.5302990917273704"
vector-effect="non-scaling-stroke"
/><path
d="M-1.6912883162097403,-6.190771789838123L-2.2101418669163433,-5.297355018953288L-3.4263817758360116,-4.611416216655067L-4.357405895077368,-5.6861560518631915L-4.733792556146727,-7.006008343897504L-3.4634794628784795,-7.468199414195938L-2.49520223035423,-8.086625591361981L-1.6552876366489482,-7.246224755749044"
vector-effect="non-scaling-stroke"
/><path
d="M1.1325516012458334,-1.711204310336424L-0.3320347122244009,-1.0151919148813449L-1.284139285936362,-2.0070857807406304L-2.0111081490856915,-3.5261971134309187L-0.3320347122244023,-4.4707515708197185L1.2047943242549164,-3.4440722705796745"
vector-effect="non-scaling-stroke"
/><path
d="M-7.385816170161402,-9.579379778304775L-4.4281841822183985,-11.286969402707516"
vector-effect="non-scaling-stroke"
/><path
d="M-1.9586854568251928,-10.550474195051226L-1.9766814848946037,-9.483005043417025L-3.1112806968777638,-9.70570996070306L-3.828316823356426,-9.554870232944113L-4.815019804726312,-9.831279005555658L-4.579489381666421,-10.825931787352944L-4.504970890751269,-11.759487049605747L-3.611325882666487,-12.05823759786443L-2.8649858887483624,-11.718546937513347L-1.793548127525367,-11.575726491736456"
vector-effect="non-scaling-stroke"
/><path
d="M-3.693050224063301,-9.358547356964726L-5.42335092383861,-8.981622942684623L-6.554133648779061,-9.70467922111965L-7.118157418011346,-11.33603391739395L-5.423350923838612,-11.912163283905993L-4.408769349357571,-10.94330587690046"
vector-effect="non-scaling-stroke"
/><path
d="M4.399053410818058,-5.032092643109932L2.8775512206985803,-4.968007232645918L2.9707648296165843,-6.479327030169493L3.2460907437635846,-7.779020086557534L4.637823611133174,-7.824034050002033L5.393176249609138,-6.857952858408537L5.588887602816341,-5.582692869490044"
vector-effect="non-scaling-stroke"
/><path
d="M7.528856551184784,-10.795484254807231L6.809978483450765,-10.803028868276316L6.276024125328164,-11.271798981576833L5.542711362827477,-12.0733972772398L6.273528284580498,-12.852850115982125L7.168044509951879,-13.306244085493667L7.990030087560452,-12.766411455937613L8.69496099397983,-12.056043764184603L8.821070639122945,-10.832432110107568"
vector-effect="non-scaling-stroke"
/><path
d="M8.335789360231056,-7.373010170517656L7.306915116085157,-7.089260815412866L6.757659677104483,-8.046992918798674L6.690534874574502,-9.187949768290675L7.718452536858721,-9.676942560726392L8.88491667286855,-9.82243968618449L9.546541900385924,-8.794271658312448L9.333455178047219,-7.662059019633975"
vector-effect="non-scaling-stroke"
/><path
d="M3.3055105688903086,-4.114667822665501L2.133932516965019,-5.332798702381964L2.935717994852383,-6.972120955307718L4.423150476370651,-6.230346467952682L5.288832364832606,-4.509875844510255"
vector-effect="non-scaling-stroke"
/><path
d="M1.647541585339008,0.15477035916212706L0.20653689014364812,0.22952656090917037L-0.011711800799116488,-1.1730294376862644L-0.1392347857543058,-2.274669641663371L0.7090655402329025,-3.3476699228601605L2.069151537760448,-2.996616643685128L2.9234696927816928,-1.959508948530019L2.4823022831966153,-0.7611245092139746"
vector-effect="non-scaling-stroke"
/><path
d="M4.515721480927004,-4.560084541880502L3.4825730858203747,-4.562716512193761L2.28041270312881,-5.273041769265555L2.74565264325747,-6.616702225668664L3.7004849268676225,-7.602588781817488L4.73591068178251,-6.733560907436412L5.7556220778357225,-6.204221314747341L5.44777090168589,-5.056633521782813"
vector-effect="non-scaling-stroke"
/><path
d="M2.04822220443969,0.12521630260742458L0.713164631891614,-0.7951464531652586L1.0961176307277298,-2.115640133988813L2.0482222044396896,-3.504769303581569L3.7057670782268604,-2.5229262811344446L3.585051240919009,-0.6786536441497709"
vector-effect="non-scaling-stroke"
/><path
d="M4.603078155430184,-11.185994320194048L7.5607101433731865,-9.478404695791307"
vector-effect="non-scaling-stroke"
/><path
d="M8.157635946473945,-6.9715084611593525L7.224182529367798,-6.45335890281758L6.849751039293638,-7.547303102151821L6.36060193991513,-8.09285473923406L6.106627468140663,-9.085568973395999L7.085787256651917,-9.378920034560679L7.931529075057064,-9.781162759502879L8.637077143286005,-9.156618754665649L8.716066398952716,-8.340424029896687L9.128099145341608,-7.341121487215202"
vector-effect="non-scaling-stroke"
/><path
d="M6.258214641619521,-7.877548989972991L5.066638173658729,-9.18757114502435L5.127431916679071,-10.528385850200884L6.25821464161952,-11.832522110831443L7.6045605559715534,-10.652841315635033L7.272796216100561,-9.289759194420073"
vector-effect="non-scaling-stroke"
/><path
d="M6.557446768539011,1.2936456848180522L5.741196080005483,0.00802884149293113L7.096644222362255,-0.6669057039674378L8.35987438339004,-1.0783129961899827L9.094724052942794,0.10445604051159134L8.635749518142468,1.2416512100441266L7.629197647912793,2.04877220818984"
vector-effect="non-scaling-stroke"
/><path
d="M13.113591886410374,1.1224389073712993L12.760686679469327,0.49609993175562506L12.899676327061183,-0.20070316349021883L13.22722443348528,-1.236569792566644L14.267658853764537,-0.9933901921841454L15.10756766196989,-0.44541340167093385L15.05105167978688,0.5363633048605428L14.78832066591075,1.5020352236090204L13.791696711684898,2.223055207003716"
vector-effect="non-scaling-stroke"
/><path
d="M10.553108790144854,3.5325002612972964L9.792937518243704,2.7833437061198296L10.347730130305381,1.8288084911028883L11.302265345322322,1.2001982821419104L12.239704356981253,1.845904694460898L12.948940631810494,2.7833437061198283L12.389333614073047,3.870411974870552L11.302265345322324,4.2519797794553105"
vector-effect="non-scaling-stroke"
/><path
d="M5.216162147007882,0.8053222138042065L5.6853054080139795,-0.8183595815376096L7.505892862980503,-0.9436541157645838L7.607213553810998,0.7153874433218813L6.550083231675984,2.3253252620472353"
vector-effect="non-scaling-stroke"
/><path
d="M0.689735729882261,1.504198046275932L-0.09550738751879366,0.2936294741376203L1.0100173920237216,-0.5966574358592304L1.9003043020205719,-1.2579156823853987L3.253699966798442,-1.0597661906402511L3.629721907714806,0.293629474137619L3.1587193747607776,1.5520445468778237L1.9003043020205732,1.7691745825133947"
vector-effect="non-scaling-stroke"
/><path
d="M6.207009797136741,1.6306872479576187L5.692714952736715,0.734638506759526L5.706794478964818,-0.6616255526104889L7.1030585383348335,-0.930546173805473L8.434277483014345,-0.5965804379199856L8.199390144660985,0.7346385067595251L8.250824308189948,1.8824042766146383L7.103058538334834,2.1895912339662287"
vector-effect="non-scaling-stroke"
/><path
d="M0.9156706031938564,1.8364206129438476L1.0451993441160143,0.22004546171608594L2.3802569166640906,-0.10855435324818288L4.059330353525379,0.021427809849349225L4.037801790451261,1.9478252896852721L2.380256916664092,2.7654186264299017"
vector-effect="non-scaling-stroke"
/><path
d="M11.988894325591579,-1.6066145418892739L11.988894325591579,1.8085647069162079"
vector-effect="non-scaling-stroke"
/><path
d="M10.116321403299132,3.5789657338918692L9.200864014262397,3.029646140599441L9.961031736171396,2.1584068585512375L10.18891876327155,1.4620154937100502L10.921647272866968,0.7457100321596584L11.665276638318332,1.4470117527922632L12.436499965808327,1.9783242901028653L12.248403025952484,2.901618843198779L11.581052287701072,3.378122907616657L10.92164727286697,4.23460500452125"
vector-effect="non-scaling-stroke"
/><path
d="M9.951264865682816,1.4809983669917326L10.489989097497334,-0.20594820233972636L11.681565565458126,-0.8237066290812349L13.376372059630858,-0.49648819343749556L13.027911479810157,1.259321968270958L11.681565565458126,1.6535466824803857"
vector-effect="non-scaling-stroke"
/><path
d="M-2.1583933577209544,6.3257383279279855L-2.8636448593069037,4.97603607413885L-4.125879392745673,5.812421326202057L-5.113783639626456,6.700707090367553L-4.456900441809622,7.928490090513626L-3.2425732685333317,8.099604068452667L-2.040310045096453,7.631465077679886"
vector-effect="non-scaling-stroke"
/><path
d="M-5.584735335225592,11.917923162178534L-5.950708196018565,11.299128800031944L-6.623652201733021,11.071095818086617L-7.684513070657806,10.83682748467316L-7.994130569184043,11.859459923797983L-7.9395231520180145,12.860830683822735L-7.061021592226431,13.30277476079816L-6.093359671930922,13.558078987793627L-4.970626072561956,13.055487317111288"
vector-effect="non-scaling-stroke"
/><path
d="M-2.2173194299138004,10.905510431814955L-2.4860224021585497,9.872604521532699L-3.5900704532009007,9.875801409901564L-4.611730470747823,10.388148050432587L-4.521251820122536,11.522847255187292L-4.064023958941946,12.605783392304323L-2.842791713687125,12.664683633183005L-1.9688101672751066,11.914038799089289"
vector-effect="non-scaling-stroke"
/><path
d="M-1.9106515781175746,4.919990036469709L-3.5513728910489615,4.514439120844355L-4.570174868128122,6.028466839543135L-3.1840630774403484,6.945733911274565L-1.2612508668433782,6.835201106557492"
vector-effect="non-scaling-stroke"
/><path
d="M0.9578058554567473,1.3494276871138056L0.30204427766244185,0.06410291322844999L-1.0217291928228387,0.5763720018270342L-2.0395390877748785,1.0167539592779724L-2.5446344265655405,2.28790373221991L-1.5605703699543587,3.2902461178227473L-0.23524968197908516,3.511553495407844L0.5819979811760421,2.53029909172737"
vector-effect="non-scaling-stroke"
/><path
d="M-1.691288316209738,6.190771789838123L-2.210141866916341,5.297355018953288L-3.42638177583601,4.611416216655068L-4.357405895077365,5.686156051863192L-4.7337925561467245,7.006008343897505L-3.463479462878477,7.468199414195939L-2.495202230354227,8.086625591361981L-1.6552876366489457,7.246224755749044"
vector-effect="non-scaling-stroke"
/><path
d="M1.1325516012458339,1.7112043103364236L-0.3320347122244005,1.0151919148813449L-1.2841392859363612,2.007085780740631L-2.01110814908569,3.526197113430919L-0.33203471222440073,4.4707515708197185L1.2047943242549177,3.4440722705796736"
vector-effect="non-scaling-stroke"
/><path
d="M-7.385816170161397,9.579379778304776L-4.428184182218394,11.286969402707518"
vector-effect="non-scaling-stroke"
/><path
d="M-1.958685456825189,10.550474195051226L-1.9766814848946008,9.483005043417025L-3.11128069687776,9.70570996070306L-3.8283168233564226,9.554870232944113L-4.815019804726308,9.83127900555566L-4.579489381666416,10.825931787352944L-4.504970890751266,11.759487049605747L-3.611325882666483,12.058237597864432L-2.864985888748358,11.718546937513347L-1.7935481275253629,11.575726491736456"
vector-effect="non-scaling-stroke"
/><path
d="M-3.6930502240632976,9.358547356964726L-5.423350923838607,8.981622942684625L-6.5541336487790565,9.704679221119651L-7.118157418011341,11.33603391739395L-5.4233509238386075,11.912163283905995L-4.408769349357566,10.943305876900462"
vector-effect="non-scaling-stroke"
/><path
d="M4.3990534108180555,5.032092643109933L2.877551220698578,4.968007232645919L2.970764829616582,6.479327030169494L3.246090743763582,7.7790200865575345L4.637823611133172,7.824034050002034L5.3931762496091356,6.857952858408539L5.588887602816339,5.582692869490046"
vector-effect="non-scaling-stroke"
/><path
d="M7.528856551184781,10.795484254807233L6.809978483450761,10.803028868276318L6.276024125328161,11.271798981576834L5.542711362827472,12.073397277239803L6.273528284580493,12.852850115982125L7.168044509951874,13.306244085493667L7.990030087560448,12.766411455937615L8.694960993979826,12.056043764184604L8.82107063912294,10.83243211010757"
vector-effect="non-scaling-stroke"
/><path
d="M8.335789360231054,7.3730101705176585L7.306915116085154,7.089260815412867L6.7576596771044795,8.046992918798676L6.690534874574499,9.187949768290677L7.718452536858717,9.676942560726394L8.884916672868547,9.822439686184493L9.54654190038592,8.794271658312452L9.333455178047215,7.662059019633977"
vector-effect="non-scaling-stroke"
/><path
d="M3.3055105688903073,4.114667822665502L2.133932516965017,5.332798702381964L2.9357179948523804,6.972120955307718L4.423150476370648,6.230346467952683L5.288832364832604,4.5098758445102565"
vector-effect="non-scaling-stroke"
/><path
d="M1.647541585339008,-0.15477035916212642L0.2065368901436482,-0.22952656090917029L-0.011711800799116935,1.1730294376862644L-0.13923478575430667,2.2746696416633707L0.7090655402329012,3.3476699228601605L2.069151537760447,2.9966166436851283L2.923469692781692,1.95950894853002L2.482302283196615,0.7611245092139753"
vector-effect="non-scaling-stroke"
/><path
d="M4.515721480927002,4.560084541880503L3.482573085820373,4.562716512193762L2.280412703128808,5.273041769265556L2.7456526432574675,6.616702225668664L3.7004849268676194,7.602588781817489L4.735910681782507,6.733560907436413L5.75562207783572,6.204221314747342L5.447770901685887,5.056633521782814"
vector-effect="non-scaling-stroke"
/><path
d="M2.04822220443969,-0.1252163026074238L0.7131646318916137,0.7951464531652588L1.0961176307277292,2.1156401339888133L2.0482222044396883,3.5047693035815692L3.705767078226859,2.522926281134446L3.5850512409190087,0.6786536441497721"
vector-effect="non-scaling-stroke"
/><path
d="M4.60307815543018,11.185994320194048L7.560710143373183,9.478404695791308"
vector-effect="non-scaling-stroke"
/><path
d="M8.157635946473942,6.971508461159355L7.224182529367796,6.453358902817583L6.849751039293635,7.547303102151822L6.360601939915127,8.092854739234062L6.106627468140659,9.085568973395999L7.085787256651914,9.37892003456068L7.93152907505706,9.78116275950288L8.637077143286,9.15661875466565L8.716066398952712,8.340424029896688L9.128099145341604,7.341121487215204"
vector-effect="non-scaling-stroke"
/><path
d="M6.258214641619517,7.877548989972992L5.066638173658726,9.18757114502435L5.127431916679067,10.528385850200884L6.2582146416195155,11.832522110831444L7.604560555971549,10.652841315635035L7.2727962161005575,9.289759194420075"
vector-effect="non-scaling-stroke"
/><path
d="M6.557446768539011,-1.2936456848180529L5.741196080005483,-0.008028841492931834L7.096644222362255,0.6669057039674369L8.35987438339004,1.0783129961899818L9.094724052942794,-0.10445604051159246L8.635749518142468,-1.2416512100441277L7.629197647912792,-2.048772208189841"
vector-effect="non-scaling-stroke"
/><path
d="M13.113591886410374,-1.1224389073713008L12.760686679469327,-0.4960999317556266L12.899676327061183,0.20070316349021725L13.22722443348528,1.2365697925666421L14.267658853764537,0.9933901921841437L15.10756766196989,0.44541340167093196L15.05105167978688,-0.5363633048605446L14.78832066591075,-1.5020352236090222L13.791696711684898,-2.2230552070037177"
vector-effect="non-scaling-stroke"
/><path
d="M10.553108790144854,-3.5325002612972978L9.792937518243704,-2.7833437061198305L10.347730130305381,-1.8288084911028895L11.302265345322322,-1.2001982821419117L12.239704356981253,-1.8459046944608997L12.948940631810494,-2.7833437061198296L12.389333614073045,-3.870411974870554L11.302265345322322,-4.251979779455311"
vector-effect="non-scaling-stroke"
/><path
d="M5.216162147007882,-0.8053222138042072L5.6853054080139795,0.8183595815376088L7.505892862980503,0.9436541157645828L7.607213553810998,-0.7153874433218823L6.550083231675983,-2.325325262047236"
vector-effect="non-scaling-stroke"
/><path
d="M0.6897357298822608,-1.5041980462759321L-0.09550738751879369,-0.2936294741376203L1.0100173920237219,0.5966574358592303L1.9003043020205719,1.2579156823853985L3.2536999667984423,1.0597661906402507L3.629721907714806,-0.2936294741376194L3.158719374760777,-1.552044546877824L1.900304302020573,-1.7691745825133949"
vector-effect="non-scaling-stroke"
/><path
d="M6.207009797136741,-1.6306872479576195L5.692714952736715,-0.7346385067595268L5.706794478964818,0.6616255526104882L7.1030585383348335,0.9305461738054721L8.434277483014345,0.5965804379199845L8.199390144660985,-0.7346385067595261L8.250824308189948,-1.8824042766146392L7.1030585383348335,-2.1895912339662296"
vector-effect="non-scaling-stroke"
/><path
d="M0.9156706031938562,-1.8364206129438476L1.0451993441160143,-0.22004546171608605L2.3802569166640906,0.10855435324818259L4.059330353525379,-0.021427809849349725L4.03780179045126,-1.9478252896852726L2.3802569166640914,-2.7654186264299017"
vector-effect="non-scaling-stroke"
/><path
d="M11.988894325591579,1.6066145418892726L11.988894325591579,-1.8085647069162092"
vector-effect="non-scaling-stroke"
/><path
d="M10.116321403299132,-3.5789657338918706L9.200864014262397,-3.029646140599442L9.961031736171396,-2.1584068585512384L10.18891876327155,-1.4620154937100514L10.921647272866968,-0.7457100321596597L11.665276638318332,-1.4470117527922648L12.436499965808327,-1.9783242901028668L12.248403025952484,-2.9016188431987806L11.581052287701072,-3.378122907616658L10.921647272866968,-4.234605004521251"
vector-effect="non-scaling-stroke"
/><path
d="M9.951264865682816,-1.480998366991734L10.489989097497334,0.20594820233972505L11.681565565458126,0.8237066290812335L13.376372059630858,0.49648819343749395L13.027911479810157,-1.2593219682709595L11.681565565458126,-1.6535466824803873"
vector-effect="non-scaling-stroke"
/><path
d="M2.158393357720957,-6.3257383279279855L2.863644859306906,-4.976036074138849L4.1258793927456745,-5.812421326202056L5.113783639626459,-6.700707090367552L4.4569004418096245,-7.928490090513625L3.242573268533335,-8.099604068452667L2.040310045096456,-7.631465077679886"
vector-effect="non-scaling-stroke"
/><path
d="M5.584735335225597,-11.917923162178532L5.950708196018569,-11.299128800031944L6.623652201733026,-11.071095818086615L7.68451307065781,-10.836827484673158L7.994130569184048,-11.859459923797981L7.939523152018019,-12.860830683822734L7.061021592226436,-13.302774760798158L6.093359671930927,-13.558078987793625L4.97062607256196,-13.055487317111286"
vector-effect="non-scaling-stroke"
/><path
d="M2.2173194299138044,-10.905510431814955L2.4860224021585537,-9.872604521532699L3.5900704532009042,-9.875801409901564L4.611730470747826,-10.388148050432587L4.521251820122539,-11.522847255187292L4.0640239589419505,-12.605783392304323L2.8427917136871295,-12.664683633183005L1.9688101672751108,-11.914038799089289"
vector-effect="non-scaling-stroke"
/><path
d="M1.9106515781175764,-4.919990036469709L3.5513728910489633,-4.514439120844354L4.570174868128125,-6.028466839543134L3.184063077440351,-6.945733911274565L1.2612508668433808,-6.835201106557493"
vector-effect="non-scaling-stroke"
/><path
d="M-0.9578058554567469,-1.3494276871138058L-0.3020442776624419,-0.06410291322845012L1.021729192822839,-0.5763720018270339L2.039539087774879,-1.0167539592779717L2.5446344265655414,-2.2879037322199096L1.56057036995436,-3.2902461178227473L0.23524968197908622,-3.511553495407844L-0.5819979811760412,-2.5302990917273704"
vector-effect="non-scaling-stroke"
/><path
d="M1.6912883162097403,-6.190771789838123L2.2101418669163433,-5.297355018953288L3.4263817758360116,-4.611416216655067L4.357405895077368,-5.6861560518631915L4.733792556146727,-7.006008343897504L3.4634794628784795,-7.468199414195938L2.49520223035423,-8.086625591361981L1.6552876366489482,-7.246224755749044"
vector-effect="non-scaling-stroke"
/><path
d="M-1.1325516012458334,-1.711204310336424L0.3320347122244009,-1.0151919148813449L1.284139285936362,-2.0070857807406304L2.0111081490856915,-3.5261971134309187L0.3320347122244023,-4.4707515708197185L-1.2047943242549164,-3.4440722705796745"
vector-effect="non-scaling-stroke"
/><path
d="M7.385816170161402,-9.579379778304775L4.4281841822183985,-11.286969402707516"
vector-effect="non-scaling-stroke"
/><path
d="M1.9586854568251928,-10.550474195051226L1.9766814848946037,-9.483005043417025L3.1112806968777638,-9.70570996070306L3.828316823356426,-9.554870232944113L4.815019804726312,-9.831279005555658L4.579489381666421,-10.825931787352944L4.504970890751269,-11.759487049605747L3.611325882666487,-12.05823759786443L2.8649858887483624,-11.718546937513347L1.793548127525367,-11.575726491736456"
vector-effect="non-scaling-stroke"
/><path
d="M3.693050224063301,-9.358547356964726L5.42335092383861,-8.981622942684623L6.554133648779061,-9.70467922111965L7.118157418011346,-11.33603391739395L5.423350923838612,-11.912163283905993L4.408769349357571,-10.94330587690046"
vector-effect="non-scaling-stroke"
/><path
d="M-4.399053410818058,-5.032092643109932L-2.8775512206985803,-4.968007232645918L-2.9707648296165843,-6.479327030169493L-3.2460907437635846,-7.779020086557534L-4.637823611133174,-7.824034050002033L-5.393176249609138,-6.857952858408537L-5.588887602816341,-5.582692869490044"
vector-effect="non-scaling-stroke"
/><path
d="M-7.528856551184784,-10.795484254807231L-6.809978483450765,-10.803028868276316L-6.276024125328164,-11.271798981576833L-5.542711362827477,-12.0733972772398L-6.273528284580498,-12.852850115982125L-7.168044509951879,-13.306244085493667L-7.990030087560452,-12.766411455937613L-8.69496099397983,-12.056043764184603L-8.821070639122945,-10.832432110107568"
vector-effect="non-scaling-stroke"
/><path
d="M-8.335789360231056,-7.373010170517656L-7.306915116085157,-7.089260815412866L-6.757659677104483,-8.046992918798674L-6.690534874574502,-9.187949768290675L-7.718452536858721,-9.676942560726392L-8.88491667286855,-9.82243968618449L-9.546541900385924,-8.794271658312448L-9.333455178047219,-7.662059019633975"
vector-effect="non-scaling-stroke"
/><path
d="M-3.3055105688903086,-4.114667822665501L-2.133932516965019,-5.332798702381964L-2.935717994852383,-6.972120955307718L-4.423150476370651,-6.230346467952682L-5.288832364832606,-4.509875844510255"
vector-effect="non-scaling-stroke"
/><path
d="M-1.647541585339008,0.15477035916212706L-0.20653689014364812,0.22952656090917037L0.011711800799116488,-1.1730294376862644L0.1392347857543058,-2.274669641663371L-0.7090655402329025,-3.3476699228601605L-2.069151537760448,-2.996616643685128L-2.9234696927816928,-1.959508948530019L-2.4823022831966153,-0.7611245092139746"
vector-effect="non-scaling-stroke"
/><path
d="M-4.515721480927004,-4.560084541880502L-3.4825730858203747,-4.562716512193761L-2.28041270312881,-5.273041769265555L-2.74565264325747,-6.616702225668664L-3.7004849268676225,-7.602588781817488L-4.73591068178251,-6.733560907436412L-5.7556220778357225,-6.204221314747341L-5.44777090168589,-5.056633521782813"
vector-effect="non-scaling-stroke"
/><path
d="M-2.04822220443969,0.12521630260742458L-0.713164631891614,-0.7951464531652586L-1.0961176307277298,-2.115640133988813L-2.0482222044396896,-3.504769303581569L-3.7057670782268604,-2.5229262811344446L-3.585051240919009,-0.6786536441497709"
vector-effect="non-scaling-stroke"
/><path
d="M-4.603078155430184,-11.185994320194048L-7.5607101433731865,-9.478404695791307"
vector-effect="non-scaling-stroke"
/><path
d="M-8.157635946473945,-6.9715084611593525L-7.224182529367798,-6.45335890281758L-6.849751039293638,-7.547303102151821L-6.36060193991513,-8.09285473923406L-6.106627468140663,-9.085568973395999L-7.085787256651917,-9.378920034560679L-7.931529075057064,-9.781162759502879L-8.637077143286005,-9.156618754665649L-8.716066398952716,-8.340424029896687L-9.128099145341608,-7.341121487215202"
vector-effect="non-scaling-stroke"
/><path
d="M-6.258214641619521,-7.877548989972991L-5.066638173658729,-9.18757114502435L-5.127431916679071,-10.528385850200884L-6.25821464161952,-11.832522110831443L-7.6045605559715534,-10.652841315635033L-7.272796216100561,-9.289759194420073"
vector-effect="non-scaling-stroke"
/><path
d="M-6.557446768539011,1.2936456848180522L-5.741196080005483,0.00802884149293113L-7.096644222362255,-0.6669057039674378L-8.35987438339004,-1.0783129961899827L-9.094724052942794,0.10445604051159134L-8.635749518142468,1.2416512100441266L-7.629197647912793,2.04877220818984"
vector-effect="non-scaling-stroke"
/><path
d="M-13.113591886410374,1.1224389073712993L-12.760686679469327,0.49609993175562506L-12.899676327061183,-0.20070316349021883L-13.22722443348528,-1.236569792566644L-14.267658853764537,-0.9933901921841454L-15.10756766196989,-0.44541340167093385L-15.05105167978688,0.5363633048605428L-14.78832066591075,1.5020352236090204L-13.791696711684898,2.223055207003716"
vector-effect="non-scaling-stroke"
/><path
d="M-10.553108790144854,3.5325002612972964L-9.792937518243704,2.7833437061198296L-10.347730130305381,1.8288084911028883L-11.302265345322322,1.2001982821419104L-12.239704356981253,1.845904694460898L-12.948940631810494,2.7833437061198283L-12.389333614073047,3.870411974870552L-11.302265345322324,4.2519797794553105"
vector-effect="non-scaling-stroke"
/><path
d="M-5.216162147007882,0.8053222138042065L-5.6853054080139795,-0.8183595815376096L-7.505892862980503,-0.9436541157645838L-7.607213553810998,0.7153874433218813L-6.550083231675984,2.3253252620472353"
vector-effect="non-scaling-stroke"
/><path
d="M-0.689735729882261,1.504198046275932L0.09550738751879366,0.2936294741376203L-1.0100173920237216,-0.5966574358592304L-1.9003043020205719,-1.2579156823853987L-3.253699966798442,-1.0597661906402511L-3.629721907714806,0.293629474137619L-3.1587193747607776,1.5520445468778237L-1.9003043020205732,1.7691745825133947"
vector-effect="non-scaling-stroke"
/><path
d="M-6.207009797136741,1.6306872479576187L-5.692714952736715,0.734638506759526L-5.706794478964818,-0.6616255526104889L-7.1030585383348335,-0.930546173805473L-8.434277483014345,-0.5965804379199856L-8.199390144660985,0.7346385067595251L-8.250824308189948,1.8824042766146383L-7.103058538334834,2.1895912339662287"
vector-effect="non-scaling-stroke"
/><path
d="M-0.9156706031938564,1.8364206129438476L-1.0451993441160143,0.22004546171608594L-2.3802569166640906,-0.10855435324818288L-4.059330353525379,0.021427809849349225L-4.037801790451261,1.9478252896852721L-2.380256916664092,2.7654186264299017"
vector-effect="non-scaling-stroke"
/><path
d="M-11.988894325591579,-1.6066145418892739L-11.988894325591579,1.8085647069162079"
vector-effect="non-scaling-stroke"
/><path
d="M-10.116321403299132,3.5789657338918692L-9.200864014262397,3.029646140599441L-9.961031736171396,2.1584068585512375L-10.18891876327155,1.4620154937100502L-10.921647272866968,0.7457100321596584L-11.665276638318332,1.4470117527922632L-12.436499965808327,1.9783242901028653L-12.248403025952484,2.901618843198779L-11.581052287701072,3.378122907616657L-10.92164727286697,4.23460500452125"
vector-effect="non-scaling-stroke"
/><path
d="M-9.951264865682816,1.4809983669917326L-10.489989097497334,-0.20594820233972636L-11.681565565458126,-0.8237066290812349L-13.376372059630858,-0.49648819343749556L-13.027911479810157,1.259321968270958L-11.681565565458126,1.6535466824803857"
vector-effect="non-scaling-stroke"
/></g></svg>